<svg width="14" height="14" fill="none" xmlns="http://www.w3.org/2000/svg"><path d="M6.364 1.536c.186-.492.893-.492 1.08 0L8.651 4.88a.577.577 0 0 0 .54.369h2.968c.548 0 .787.683.356 1.017l-2.111 1.9a.565.565 0 0 0-.188.637l.771 3.268c.188.525-.42.976-.88.653l-2.868-1.82a.583.583 0 0 0-.67 0L3.7 12.725c-.459.323-1.067-.128-.88-.653l.772-3.268a.565.565 0 0 0-.188-.637l-2.112-1.9c-.432-.334-.191-1.017.356-1.017h2.967a.577.577 0 0 0 .54-.37l1.208-3.344h0Z" fill="#FFD057" stroke="#FFD057" stroke-linecap="round" stroke-linejoin="round"/></svg>