<svg width="14" height="14" viewBox="0 0 14 14" fill="none" xmlns="http://www.w3.org/2000/svg">
<path d="M6.36363 1.53594C6.55029 1.0436 7.25671 1.0436 7.44396 1.53594L8.65146 4.88077C8.69358 4.98973 8.76776 5.08335 8.8642 5.14928C8.96064 5.2152 9.07481 5.25033 9.19162 5.25002H12.159C12.7074 5.25002 12.9465 5.93252 12.5155 6.26677L10.4038 8.16669C10.3092 8.2394 10.2401 8.34021 10.2063 8.45465C10.1726 8.56909 10.176 8.69128 10.216 8.80369L10.9871 12.0721C11.175 12.5971 10.5671 13.048 10.1075 12.7249L7.23921 10.9049C7.14098 10.8358 7.02385 10.7988 6.90379 10.7988C6.78373 10.7988 6.6666 10.8358 6.56838 10.9049L3.70013 12.7249C3.24104 13.048 2.63263 12.5965 2.82046 12.0721L3.59163 8.80369C3.63163 8.69128 3.635 8.56909 3.60126 8.45465C3.56751 8.34021 3.49838 8.2394 3.40379 8.16669L1.29213 6.26677C0.860459 5.93252 1.10079 5.25002 1.64796 5.25002H4.61538C4.73221 5.25041 4.84641 5.21531 4.94287 5.14938C5.03932 5.08344 5.11349 4.98978 5.15554 4.88077L6.36304 1.53594H6.36363Z" fill="#FFD057" stroke="#FFD057" stroke-linecap="round" stroke-linejoin="round"/>
</svg>
